<svg width="800" height="800" viewBox="0 0 800 800" fill="none" xmlns="http://www.w3.org/2000/svg">
<path opacity="0.4" d="M683.667 283.333V521.667C682.667 616.667 656.667 640.667 557.667 640.667H243.001C142.334 640.667 117 615.667 117 516.333V283.333C117 193.333 138 164.333 217 159.667C225 159.333 233.668 159 243.001 159H557.667C658.333 159 683.667 184 683.667 283.333Z" fill="#8197B3"/>
<path d="M282.342 559.343H225.008C211.341 559.343 200.008 548.01 200.008 534.343C200.008 520.677 211.341 509.343 225.008 509.343H282.342C296.009 509.343 307.342 520.677 307.342 534.343C307.342 548.01 296.342 559.343 282.342 559.343Z" fill="#8197B3"/>
<path d="M468.647 559.343H353.979C340.313 559.343 328.979 548.01 328.979 534.343C328.979 520.677 340.313 509.343 353.979 509.343H468.647C482.314 509.343 493.647 520.677 493.647 534.343C493.647 548.01 482.647 559.343 468.647 559.343Z" fill="#8197B3"/>
<path d="M683.667 336.003H117V386.003H683.667V336.003Z" fill="#8197B3"/>
</svg>
