<svg width="44" height="44" viewBox="0 0 44 44" fill="none" xmlns="http://www.w3.org/2000/svg">
<path d="M44 22C44 34.1503 34.1503 44 22 44C9.84974 44 0 34.1503 0 22C0 9.84974 9.84974 0 22 0C34.1503 0 44 9.84974 44 22Z" fill="#F3F7FF"/>
<path d="M31.7288 13.7502H27.4604L27.8785 12.0787L29.6748 11.467C30.0568 11.3371 30.2842 10.9312 30.174 10.5431C30.146 10.4454 30.0984 10.3545 30.0342 10.2758C29.97 10.1971 29.8904 10.1323 29.8004 10.0852C29.7103 10.0382 29.6117 10.01 29.5104 10.0022C29.4091 9.99443 29.3073 10.0073 29.2112 10.0401L27.0081 10.7901C26.8894 10.8305 26.7828 10.9001 26.698 10.9924C26.6131 11.0847 26.5528 11.1967 26.5224 11.3184L25.9145 13.7502H19.771C19.3674 13.7502 19.021 14.0606 19.0009 14.4642C18.996 14.5656 19.0117 14.6669 19.0472 14.762C19.0826 14.8572 19.137 14.9441 19.207 15.0176C19.2771 15.0911 19.3613 15.1496 19.4546 15.1896C19.5479 15.2296 19.6484 15.2502 19.7499 15.2502H19.8788L19.9257 15.6562C19.9368 15.751 19.9823 15.8384 20.0536 15.9019C20.1249 15.9653 20.217 16.0003 20.3124 16.0002C22.1406 16.0002 23.7652 16.5112 25.0056 17.4777C25.6954 18.0093 26.2547 18.6915 26.6406 19.4723C26.8566 19.9114 27.016 20.3763 27.1149 20.8556C27.1346 20.949 27.19 21.031 27.2691 21.0843C27.9068 21.517 28.3772 22.1548 28.6022 22.8919C28.8271 23.6289 28.7931 24.4207 28.5057 25.1357C28.4723 25.2185 28.4698 25.3105 28.4987 25.3949C28.6647 25.8708 28.7497 26.3712 28.7499 26.8752C28.7499 27.9224 28.3937 28.9204 27.7468 29.6854C27.3801 30.122 26.9187 30.4694 26.3977 30.7012C26.3076 30.7409 26.2367 30.8145 26.2004 30.906C26.0057 31.4132 25.7308 31.8858 25.3862 32.3057C25.3718 32.3228 25.3626 32.3435 25.3597 32.3656C25.3567 32.3877 25.3601 32.4101 25.3695 32.4304C25.3788 32.4506 25.3937 32.4677 25.4125 32.4798C25.4312 32.4918 25.453 32.4983 25.4752 32.4984H27.782C28.3467 32.4961 28.8902 32.2824 29.3053 31.8995C29.7204 31.5165 29.9772 30.9921 30.0249 30.4293L31.6281 15.2502H31.7499C31.8515 15.2504 31.9521 15.2298 32.0455 15.1899C32.139 15.15 32.2233 15.0915 32.2934 15.018C32.3636 14.9445 32.418 14.8575 32.4535 14.7623C32.489 14.6671 32.5048 14.5656 32.4999 14.4642C32.4802 14.0606 32.1324 13.7502 31.7288 13.7502Z" fill="#092C4C"/>
<path d="M14.3448 24.25C14.4928 24.2493 14.6394 24.2779 14.7761 24.3343C14.9129 24.3906 15.0372 24.4735 15.1417 24.5781L15.8687 25.3052C15.8862 25.3226 15.9068 25.3364 15.9296 25.3459C15.9524 25.3553 15.9768 25.3601 16.0014 25.3601C16.026 25.3601 16.0504 25.3553 16.0732 25.3459C16.096 25.3364 16.1167 25.3226 16.1341 25.3052L16.8597 24.5781C16.9642 24.4735 17.0885 24.3906 17.2253 24.3343C17.3621 24.2779 17.5086 24.2493 17.6566 24.25H26.8713C26.9205 24.2505 26.9694 24.2413 27.015 24.2229C27.0607 24.2045 27.1023 24.1773 27.1375 24.1428C27.1727 24.1083 27.2007 24.0673 27.22 24.022C27.2393 23.9767 27.2495 23.928 27.25 23.8787V23.875C27.2495 23.4429 27.1 23.0242 26.8268 22.6895C26.5535 22.3548 26.1732 22.1245 25.75 22.0375C25.7116 20.6458 25.1406 19.4809 24.0855 18.6625C23.1095 17.9013 21.8055 17.5 20.3125 17.5H16.9375C13.7397 17.5 11.5736 19.3173 11.5 22.0375C11.0768 22.1245 10.6965 22.3548 10.4232 22.6895C10.15 23.0242 10.0005 23.4429 10 23.875C10 23.9745 10.0395 24.0698 10.1098 24.1402C10.1802 24.2105 10.2755 24.25 10.375 24.25H14.3448ZM17.9659 25.75C17.9167 25.75 17.8679 25.7596 17.8224 25.7784C17.7768 25.7973 17.7355 25.8249 17.7006 25.8597L16.6628 26.898C16.487 27.0737 16.2486 27.1725 16 27.1725C15.7514 27.1725 15.513 27.0737 15.3372 26.898L14.2994 25.8597C14.2645 25.8249 14.2232 25.7973 14.1776 25.7784C14.1321 25.7596 14.0833 25.75 14.0341 25.75H10.7809C10.6048 25.7492 10.434 25.8108 10.2988 25.9237C10.1636 26.0367 10.0727 26.1938 10.0422 26.3673C10.014 26.5351 9.99992 26.7049 10 26.875C10 28.3089 10.9905 29.477 12.2153 29.5C12.3292 30.2087 12.6048 30.8491 13.0197 31.3502C13.6333 32.0913 14.5253 32.5 15.5312 32.5H21.7188C22.7247 32.5 23.6167 32.0913 24.2303 31.3492C24.6452 30.8481 24.9208 30.2078 25.0347 29.4991C26.2595 29.477 27.25 28.3089 27.25 26.8741C27.2501 26.704 27.236 26.5342 27.2078 26.3664C27.1771 26.1931 27.0861 26.0361 26.9509 25.9234C26.8158 25.8106 26.6451 25.7492 26.4691 25.75H17.9659Z" fill="#092C4C"/>
</svg>
