<svg width="800" height="800" viewBox="0 0 800 800" fill="none" xmlns="http://www.w3.org/2000/svg">
<path d="M600 141.667H200C175.688 141.667 152.372 151.324 135.182 168.515C117.991 185.706 108.333 209.022 108.333 233.333V566.666C108.333 590.976 117.991 614.293 135.182 631.483C152.372 648.676 175.688 658.333 200 658.333H600C624.31 658.333 647.626 648.676 664.816 631.483C682.01 614.293 691.666 590.976 691.666 566.666V233.333C691.666 209.022 682.01 185.706 664.816 168.515C647.626 151.324 624.31 141.667 600 141.667ZM641.666 233.333V375H425V191.667H600C611.05 191.667 621.65 196.056 629.463 203.87C637.276 211.684 641.666 222.283 641.666 233.333ZM200 191.667H375V375H158.333V233.333C158.333 222.283 162.723 211.684 170.537 203.87C178.351 196.056 188.949 191.667 200 191.667ZM158.333 566.666V425H375V608.333H200C188.949 608.333 178.351 603.943 170.537 596.13C162.723 588.316 158.333 577.716 158.333 566.666ZM600 608.333H425V425H641.666V566.666C641.666 577.716 637.276 588.316 629.463 596.13C621.65 603.943 611.05 608.333 600 608.333Z" fill="#0F0E0E" fill-opacity="0.2"/>
</svg>
